# xmcd
#
# Track frame offsets:
#	150
#	14930
#	28450
#	47271
#	63842
#	77590
#	95031
#	112610
#	131110
#	154374
#	169631
#	186682
#	204663
#	220583
#	235795
#	253893
#	271943
#
# Disc length: 3847 seconds
#
# Revision: 2
# Processed by: cddbd v1.5.2PL0 Copyright (c) Steve Scherf et al.
# Submitted via: audiograbber 1.83.01
#
DISCID=f40f0511
DTITLE=Various Artist - CB1538-01
DYEAR=1900
DGENRE=
TTITLE0=Jason Aldean - Crazy Town
TTITLE1=Toby Keith - American Ride
TTITLE2=Carrie Underwood - Temporary Home
TTITLE3=Darius Rucker - History In The Making
TTITLE4=Easton Corbin - A Little More Country Than That
TTITLE5=Colt Ford ft. Jamey Johnson - Cold Beer
TTITLE6=Martina McBride - Wrong Baby, Wrong Baby, Wrong
TTITLE7=Keith Urban - Til Summer Comes Around
TTITLE8=Rascal Flatts - Why
TTITLE9=Josh Thompson - Beer On The Table
TTITLE10=Reba McEntire - Consider Me Gone
TTITLE11=Billy Currington - That's How Country Boys Roll
TTITLE12=Kenny Chesney ft. David Matthews - I'm Alive
TTITLE13=George Strait - I Gotta Get To You 
TTITLE14=Miranda Lambert - House That Built Me, The
TTITLE15=Tim McGraw - Still
TTITLE16=Chris Young - Man I Want To Be, The
EXTD=Chartbuster Karaoke
EXTT0=
EXTT1=
EXTT2=
EXTT3=
EXTT4=
EXTT5=
EXTT6=
EXTT7=
EXTT8=
EXTT9=
EXTT10=
EXTT11=
EXTT12=
EXTT13=
EXTT14=
EXTT15=
EXTT16=
PLAYORDER=
